<?xml version="1.0" encoding="iso-8859-1"?>
<!-- Generator: Adobe Illustrator 19.0.0, SVG Export Plug-In . SVG Version: 6.00 Build 0)  -->
<svg version="1.1" id="Layer_1" xmlns="http://www.w3.org/2000/svg" xmlns:xlink="http://www.w3.org/1999/xlink" x="0px" y="0px"
	 viewBox="0 0 512.016 512.016" style="enable-background:new 0 0 512.016 512.016;" xml:space="preserve">
<path style="fill:#25B6D2;" d="M417.04,228.464h-7.68c-7.68-31.632-36.112-55.344-70.224-55.344c-8.24,0-16.208,1.408-23.6,3.952
	c-16.768-47.44-61.968-81.328-115.424-81.328c-67.664,0-122.24,54.512-122.24,121.44c0,4.24,0.288,8.464,0.576,12.432
	C34.112,237.504,0,276.192,0,322.224c0,51.68,42.64,94.048,94.672,94.048h322.672c52.032,0,94.672-42.368,94.672-94.048
	C511.712,270.544,469.072,228.464,417.04,228.464z"/>
<g>
</g>
<g>
</g>
<g>
</g>
<g>
</g>
<g>
</g>
<g>
</g>
<g>
</g>
<g>
</g>
<g>
</g>
<g>
</g>
<g>
</g>
<g>
</g>
<g>
</g>
<g>
</g>
<g>
</g>
</svg>
